HIERARCHY
ROOT hip
{
	OFFSET 0.000000 0.000000 0.000000 
	CHANNELS 6 Xposition Yposition Zposition Xrotation Zrotation Yrotation
	JOINT abdomen
	{
		OFFSET 0.000000 3.402643 0.000000 
		CHANNELS 3 Xrotation Zrotation Yrotation
		JOINT chest
		{
			OFFSET 0.000000 8.438565 -0.680529 
			CHANNELS 3 Xrotation Zrotation Yrotation
			JOINT neck
			{
				OFFSET 0.000000 10.207942 -0.272212 
				CHANNELS 3 Xrotation Zrotation Yrotation
				JOINT head
				{
					OFFSET 0.000000 3.130431 0.000000 
					CHANNELS 3 Xrotation Zrotation Yrotation
					End Site
					{
						OFFSET 0.000000 3.130435 0.000000 
					}
				}
			}
			JOINT lCollar
			{
				OFFSET 3.470700 6.669187 -0.816635 
				CHANNELS 3 Yrotation Zrotation Xrotation
				JOINT lShldr
				{
					OFFSET 3.198488 0.000000 0.000000 
					CHANNELS 3 Zrotation Yrotation Xrotation
					JOINT lForeArm
					{
						OFFSET 10.139888 0.000000 0.000000 
						CHANNELS 3 Yrotation Zrotation Xrotation
						JOINT lHand
						{
							OFFSET 8.370511 0.000000 0.000000 
							CHANNELS 3 Zrotation Yrotation Xrotation
							End Site
							{
								OFFSET 4.083176 0.000000 0.000000 
							}
						}
					}
				}
			}
			JOINT rCollar
			{
				OFFSET -3.470700 6.669187 -0.816635 
				CHANNELS 3 Yrotation Zrotation Xrotation
				JOINT rShldr
				{
					OFFSET -3.198488 0.000000 0.000000 
					CHANNELS 3 Zrotation Yrotation Xrotation
					JOINT rForeArm
					{
						OFFSET -10.139888 0.000000 0.000000 
						CHANNELS 3 Yrotation Zrotation Xrotation
						JOINT rHand
						{
							OFFSET -8.370511 0.000000 0.000000 
							CHANNELS 3 Zrotation Yrotation Xrotation
							End Site
							{
								OFFSET -4.083176 0.000000 0.000000 
							}
						}
					}
				}
			}
		}
	}
	JOINT lThigh
	{
		OFFSET 5.308129 -1.633274 1.361059 
		CHANNELS 3 Xrotation Zrotation Yrotation
		JOINT lShin
		{
			OFFSET -2.041588 -20.007561 0.000000 
			CHANNELS 3 Xrotation Zrotation Yrotation
			JOINT lFoot
			{
				OFFSET 0.000000 -19.190928 -1.224953 
				CHANNELS 3 Xrotation Yrotation Zrotation
				End Site
				{
					OFFSET 0.000000 -2.449906 4.627600 
				}
			}
		}
	}
	JOINT rThigh
	{
		OFFSET -5.308129 -1.633274 1.361059 
		CHANNELS 3 Xrotation Zrotation Yrotation
		JOINT rShin
		{
			OFFSET 2.041588 -20.007561 0.000000 
			CHANNELS 3 Xrotation Zrotation Yrotation
			JOINT rFoot
			{
				OFFSET 0.000000 -19.190928 -1.224953 
				CHANNELS 3 Xrotation Yrotation Zrotation
				End Site
				{
					OFFSET 0.000000 -2.449906 4.627600 
				}
			}
		}
	}
}
MOTION
Frames: 10
Frame Time: 0.033333
2.082654 45.231556 -0.618986 -4.121094 1.523438 -5.566146 0.000000 0.000000 0.000000 0.634766 -0.390625 0.361328 17.158203 -3.720703 2.577491 -7.558594 1.757813 0.644531 -5.205078 -25.000000 1.273660 -47.812500 -9.775391 15.095999 -13.007813 -13.476563 37.880859 18.818357 -1.513672 -7.734374 2.744141 23.271486 2.291064 53.164063 15.722655 12.519532 10.859375 14.287109 41.582031 -12.392579 2.851563 -7.128906 4.508855 4.890041 11.823868 2.919909 -0.731046 -9.004263 -4.611598 -0.170995 2.642380 8.985725 -5.650405 -11.481855 3.074479 0.017704 8.547633 -7.518892 0.673140 -6.355026 
2.082654 45.231556 -0.681547 -4.013672 1.435564 -5.605160 0.000000 0.000000 0.000000 0.644531 -0.400391 0.390557 17.500000 -3.769531 2.587890 -7.675781 2.148437 0.439819 -5.009766 -25.000000 1.367187 -47.744141 -10.068359 20.820313 -15.507813 -12.265625 32.451176 18.417969 -2.001953 -7.773777 2.841797 22.929688 2.349711 53.251953 15.898438 16.240234 12.636719 13.652345 37.780895 -12.041016 2.880960 -7.089616 4.164351 5.014948 11.766081 3.264637 -0.624325 -8.891351 -4.770577 -0.188980 2.529742 8.534074 -5.448829 -11.014047 3.527005 -0.253973 8.180516 -7.788670 0.692751 -6.007220 
2.082654 45.231556 -0.781291 -3.671875 1.435547 -5.605469 0.000000 0.000000 0.000000 0.634766 -0.380859 0.400326 18.154297 -4.228516 2.587890 -8.554687 2.656250 0.176234 -5.205078 -25.000000 1.332254 -47.109375 -10.156250 28.896481 -18.935547 -9.824218 24.521484 17.998047 -2.041015 -7.734720 3.193359 22.363281 2.304688 53.398438 16.093752 20.312502 14.707033 12.548829 33.464676 -11.953125 3.183594 -7.118597 3.453707 5.073912 11.609367 3.718397 -0.555343 -8.763067 -4.878557 -0.186777 2.382817 7.775524 -5.386318 -10.614136 4.054399 -0.390457 7.854780 -7.925261 0.676708 -6.005818 
2.082654 45.231556 -0.885240 -3.203125 1.464844 -5.634766 0.000000 0.000000 0.000000 0.625000 -0.400391 0.429688 18.349611 -4.218750 2.665298 -8.720703 2.548828 0.146484 -5.341796 -25.000000 1.244363 -46.572266 -10.283202 37.099606 -22.285156 -6.396484 16.503906 17.363279 -1.972656 -7.636718 3.320313 22.207029 2.226563 52.841797 16.562500 26.806639 17.265625 10.898437 27.078234 -12.041016 3.076279 -7.109116 2.672640 5.093241 11.321873 4.032236 -0.429268 -8.451940 -4.935472 -0.186761 2.255766 6.712122 -5.318372 -10.111464 4.884978 -0.644195 7.642411 -8.175749 0.686524 -5.897469 
2.082654 45.231556 -1.032221 -2.597656 1.582031 -5.664063 0.000000 0.000000 0.000000 0.576172 -0.507813 0.449219 18.671877 -3.691406 2.499371 -9.091797 2.001953 0.234375 -5.488282 -25.000000 1.074219 -46.806641 -10.683594 42.646481 -24.707033 -3.408203 11.230468 17.080078 -2.314453 -7.656645 3.525391 22.011717 2.050781 52.226563 17.119141 33.645458 19.736326 8.681641 20.673830 -12.226563 3.193359 -7.158204 1.540346 4.984131 10.784896 4.633848 -0.165405 -7.943767 -5.099492 -0.174905 2.113120 5.223401 -5.389973 -9.625243 6.242624 -0.859116 7.462535 -8.668512 0.708720 -5.958588 
2.082654 45.179951 -1.254709 -1.640625 1.748047 -5.781250 0.000000 0.000000 0.000000 0.546875 -0.585938 0.507813 19.062500 -3.720703 2.607422 -10.117188 1.777344 0.175781 -5.595703 -25.000000 0.957031 -46.718746 -11.464843 44.041031 -26.972656 -1.386719 9.658439 16.357422 -2.636719 -7.617637 3.896484 21.318359 1.923828 52.021484 18.017578 39.228519 21.787109 6.152344 15.799733 -12.578125 3.193360 -7.197265 -0.400441 4.916910 10.124804 5.942730 0.097827 -7.262989 -5.421459 -0.155724 1.921173 2.918806 -5.457049 -8.828115 8.254613 -1.171626 6.841593 -9.415867 0.716903 -5.792583 
2.082654 45.076145 -1.589518 -0.195313 2.138672 -6.464844 0.000000 0.000000 0.000000 0.517578 -0.820311 0.663924 19.042967 -4.003906 3.085938 -11.103516 1.611328 0.126953 -5.136719 -25.000000 0.869141 -46.816406 -12.656251 41.150204 -29.501953 -1.191406 11.923829 16.181641 -2.460938 -7.558594 4.843750 20.263674 1.826172 52.109375 19.638674 42.832031 23.193359 4.013672 12.773438 -12.656250 3.203125 -7.216797 -3.241283 4.773297 9.282040 7.933680 0.290871 -5.812433 -5.985981 -0.167942 1.812156 -0.790959 -5.770519 -7.246711 11.552410 -1.437541 6.059899 -10.510162 0.761835 -5.601563 
2.082654 44.911201 -2.061308 1.728516 2.753906 -6.767109 0.000000 0.000000 0.000000 0.478516 -1.132811 0.693167 19.121094 -4.335938 3.290277 -12.646484 1.552734 0.283203 -4.951172 -24.863281 0.751953 -46.894527 -14.453126 38.181156 -31.972654 -1.093750 14.013859 16.376953 -2.666016 -7.626953 5.302734 18.818359 1.708984 52.480469 21.933596 46.058338 24.570314 1.748047 10.224311 -12.998046 2.480469 -7.157781 -7.293374 4.471482 8.118154 10.857538 0.564249 -4.410532 -6.796029 -0.156868 1.585821 -5.701704 -6.414069 -4.438049 15.933928 -0.995701 4.037607 -11.815076 0.788459 -5.528444 
2.082654 44.648895 -2.571392 3.662110 3.408203 -6.893881 0.000000 0.000000 0.000000 0.537109 -1.464844 0.644531 19.550781 -5.019531 3.456177 -14.697266 1.806641 0.439453 -4.853516 -23.867189 1.044922 -46.679684 -16.718750 35.075317 -34.667973 -1.035156 15.371093 16.582033 -2.392578 -7.607830 5.292969 17.041018 1.999091 53.173828 24.638670 47.963055 25.957031 -0.302734 9.052733 -14.355468 2.226563 -7.314074 -12.106143 4.422367 6.898694 15.138084 0.553075 -3.245479 -8.238256 -0.177091 1.442617 -10.912614 -7.037508 -2.099642 20.876099 -0.292881 2.428330 -13.380196 0.900458 -5.576534 
2.103283 44.256916 -3.177377 5.937500 3.964844 -6.679013 0.000000 0.000000 0.000000 0.673828 -1.689453 0.546875 20.019531 -5.371094 3.242188 -17.021484 1.679688 0.488568 -4.726563 -22.431639 1.708985 -46.787109 -20.107422 31.953125 -36.953125 -0.986328 16.484375 16.992188 -2.109375 -7.617187 4.980468 15.234375 2.636719 53.593750 27.724611 46.806641 27.900393 -1.376953 10.967031 -16.435547 1.865234 -7.519573 -18.313332 4.704906 2.238617 21.004248 -0.957744 0.465928 -10.005522 -0.140010 0.893890 -16.605566 -7.478023 -2.614060 26.132172 -0.513375 3.371382 -15.133553 0.989445 -5.669551 
